<svg width="204" height="104" viewBox="0 0 204 104" fill="none" xmlns="http://www.w3.org/2000/svg">
<path d="M0.816 45C0.645334 45 0.56 44.8933 0.56 44.68L0.688 0.711998C0.688 0.541331 0.773334 0.455997 0.944 0.455997H13.232C15.664 0.455997 17.84 1.05333 19.76 2.248C21.68 3.4 23.1947 4.936 24.304 6.856C25.4133 8.776 25.968 10.8667 25.968 13.128C25.968 14.9627 25.5413 16.6693 24.688 18.248C23.8773 19.8267 22.896 21.1067 21.744 22.088C22.9813 23.3253 23.9413 24.7547 24.624 26.376C25.3067 27.9973 25.648 29.704 25.648 31.496C25.648 33.9707 25.0507 36.232 23.856 38.28C22.6613 40.328 21.04 41.9707 18.992 43.208C16.9867 44.4027 14.7467 45 12.272 45H0.816ZM8.368 18.12H13.232C14.7253 18.12 15.92 17.608 16.816 16.584C17.7547 15.5173 18.224 14.3653 18.224 13.128C18.224 11.7627 17.7333 10.5893 16.752 9.608C15.7707 8.584 14.5973 8.072 13.232 8.072H8.368V18.12ZM8.304 37.192H12.272C13.808 37.192 15.1307 36.6373 16.24 35.528C17.3493 34.376 17.904 33.032 17.904 31.496C17.904 29.96 17.3493 28.6373 16.24 27.528C15.1307 26.4187 13.808 25.864 12.272 25.864H8.368L8.304 37.192ZM30.5035 45C30.3328 45 30.2475 44.8933 30.2475 44.68L30.3755 0.711998C30.3755 0.541331 30.4608 0.455997 30.6315 0.455997H43.5595C45.8635 0.455997 47.9755 1.032 49.8955 2.184C51.8582 3.29333 53.4155 4.808 54.5675 6.728C55.7195 8.60533 56.2955 10.7387 56.2955 13.128C56.2955 14.7067 56.0608 16.136 55.5915 17.416C55.1222 18.6533 54.5675 19.72 53.9275 20.616C53.2875 21.4693 52.7115 22.1093 52.1995 22.536C54.5035 25.096 55.6555 28.104 55.6555 31.56L55.7195 44.68C55.7195 44.8933 55.6128 45 55.3995 45H48.1675C47.9968 45 47.9115 44.936 47.9115 44.808V31.56C47.9115 30.024 47.3568 28.7013 46.2475 27.592C45.1808 26.44 43.8582 25.864 42.2795 25.864H38.0555L37.9915 44.68C37.9915 44.8933 37.9062 45 37.7355 45H30.5035ZM38.0555 18.184H43.5595C44.8822 18.184 46.0555 17.6933 47.0795 16.712C48.1035 15.7307 48.6155 14.536 48.6155 13.128C48.6155 11.7627 48.1035 10.5893 47.0795 9.608C46.0982 8.62666 44.9248 8.136 43.5595 8.136H38.0555V18.184ZM61.4425 45C61.2292 45 61.1225 44.8933 61.1225 44.68L61.1865 0.711998C61.1865 0.541331 61.2718 0.455997 61.4425 0.455997H68.6105C68.7812 0.455997 68.8665 0.541331 68.8665 0.711998L68.9305 44.68C68.9305 44.8933 68.8452 45 68.6745 45H61.4425ZM72.384 44.68L80.32 0.711998C80.3627 0.541331 80.4693 0.455997 80.64 0.455997H89.92C90.0907 0.455997 90.1973 0.541331 90.24 0.711998L97.856 44.68C97.8987 44.8933 97.8133 45 97.6 45H90.496C90.3253 45 90.2187 44.8933 90.176 44.68L89.472 40.008H80.768L80.064 44.68C80.0213 44.8933 79.9147 45 79.744 45H72.64C72.4693 45 72.384 44.8933 72.384 44.68ZM82.048 33.16H88.192L85.568 15.176L85.184 12.808L84.928 15.176L82.048 33.16ZM102.449 45C102.107 45 101.937 44.8507 101.937 44.552L101.873 0.967999C101.873 0.626664 102.043 0.455997 102.385 0.455997H108.145L118.961 25.672L118.641 0.967999C118.641 0.626664 118.833 0.455997 119.217 0.455997H125.553C125.809 0.455997 125.937 0.626664 125.937 0.967999L126.001 44.616C126.001 44.872 125.894 45 125.681 45H120.049L108.977 21.448L109.425 44.488C109.425 44.8293 109.233 45 108.849 45H102.449ZM0.816 103C0.645334 103 0.56 102.893 0.56 102.68L0.688 58.712C0.688 58.5413 0.773334 58.456 0.944 58.456H13.232C15.664 58.456 17.84 59.0533 19.76 60.248C21.68 61.4 23.1947 62.936 24.304 64.856C25.4133 66.776 25.968 68.8667 25.968 71.128C25.968 72.9627 25.5413 74.6693 24.688 76.248C23.8773 77.8267 22.896 79.1067 21.744 80.088C22.9813 81.3253 23.9413 82.7547 24.624 84.376C25.3067 85.9973 25.648 87.704 25.648 89.496C25.648 91.9707 25.0507 94.232 23.856 96.28C22.6613 98.328 21.04 99.9707 18.992 101.208C16.9867 102.403 14.7467 103 12.272 103H0.816ZM8.368 76.12H13.232C14.7253 76.12 15.92 75.608 16.816 74.584C17.7547 73.5173 18.224 72.3653 18.224 71.128C18.224 69.7627 17.7333 68.5893 16.752 67.608C15.7707 66.584 14.5973 66.072 13.232 66.072H8.368V76.12ZM8.304 95.192H12.272C13.808 95.192 15.1307 94.6373 16.24 93.528C17.3493 92.376 17.904 91.032 17.904 89.496C17.904 87.96 17.3493 86.6373 16.24 85.528C15.1307 84.4187 13.808 83.864 12.272 83.864H8.368L8.304 95.192ZM42.0235 103.64C39.7622 103.64 37.6715 103.064 35.7515 101.912C33.8315 100.717 32.2955 99.1387 31.1435 97.176C30.0342 95.2133 29.4795 93.0587 29.4795 90.712L29.6075 58.712C29.6075 58.5413 29.6928 58.456 29.8635 58.456H37.0315C37.2022 58.456 37.2875 58.5413 37.2875 58.712V90.712C37.2875 92.1627 37.7355 93.4 38.6315 94.424C39.5702 95.4053 40.7008 95.896 42.0235 95.896C43.3888 95.896 44.5195 95.4053 45.4155 94.424C46.3542 93.4 46.8235 92.1627 46.8235 90.712V58.712C46.8235 58.5413 46.9088 58.456 47.0795 58.456H54.2475C54.4182 58.456 54.5035 58.5413 54.5035 58.712L54.6315 90.712C54.6315 93.1013 54.0555 95.2773 52.9035 97.24C51.7942 99.2027 50.2795 100.76 48.3595 101.912C46.4822 103.064 44.3702 103.64 42.0235 103.64ZM59.941 103C59.7703 103 59.685 102.893 59.685 102.68L59.813 58.712C59.813 58.5413 59.8983 58.456 60.069 58.456H72.997C75.301 58.456 77.413 59.032 79.333 60.184C81.2957 61.2933 82.853 62.808 84.005 64.728C85.157 66.6053 85.733 68.7387 85.733 71.128C85.733 72.7067 85.4983 74.136 85.029 75.416C84.5597 76.6533 84.005 77.72 83.365 78.616C82.725 79.4693 82.149 80.1093 81.637 80.536C83.941 83.096 85.093 86.104 85.093 89.56L85.157 102.68C85.157 102.893 85.0503 103 84.837 103H77.605C77.4343 103 77.349 102.936 77.349 102.808V89.56C77.349 88.024 76.7943 86.7013 75.685 85.592C74.6183 84.44 73.2957 83.864 71.717 83.864H67.493L67.429 102.68C67.429 102.893 67.3437 103 67.173 103H59.941ZM67.493 76.184H72.997C74.3197 76.184 75.493 75.6933 76.517 74.712C77.541 73.7307 78.053 72.536 78.053 71.128C78.053 69.7627 77.541 68.5893 76.517 67.608C75.5357 66.6267 74.3623 66.136 72.997 66.136H67.493V76.184ZM90.816 103C90.6453 103 90.56 102.893 90.56 102.68L90.688 58.776C90.688 58.5627 90.7733 58.456 90.944 58.456H98.112C98.2827 58.456 98.368 58.5627 98.368 58.776V73.944L108.416 58.712C108.544 58.5413 108.693 58.456 108.864 58.456H116.224C116.395 58.456 116.437 58.5413 116.352 58.712L105.28 76.376L117.696 102.744C117.781 102.915 117.675 103 117.376 103H109.568C109.355 103 109.227 102.915 109.184 102.744L100.544 83.928L98.304 87.448V102.68C98.304 102.893 98.2187 103 98.048 103H90.816ZM118.384 102.68L126.32 58.712C126.363 58.5413 126.469 58.456 126.64 58.456H135.92C136.091 58.456 136.197 58.5413 136.24 58.712L143.856 102.68C143.899 102.893 143.813 103 143.6 103H136.496C136.325 103 136.219 102.893 136.176 102.68L135.472 98.008H126.768L126.064 102.68C126.021 102.893 125.915 103 125.744 103H118.64C118.469 103 118.384 102.893 118.384 102.68ZM128.048 91.16H134.192L131.568 73.176L131.184 70.808L130.928 73.176L128.048 91.16ZM148.129 103C147.958 103 147.873 102.893 147.873 102.68L148.001 58.712C148.001 58.5413 148.086 58.456 148.257 58.456H161.185C163.489 58.456 165.601 59.032 167.521 60.184C169.483 61.2933 171.041 62.808 172.193 64.728C173.345 66.6053 173.921 68.7387 173.921 71.128C173.921 72.7067 173.686 74.136 173.217 75.416C172.747 76.6533 172.193 77.72 171.553 78.616C170.913 79.4693 170.337 80.1093 169.825 80.536C172.129 83.096 173.281 86.104 173.281 89.56L173.345 102.68C173.345 102.893 173.238 103 173.025 103H165.793C165.622 103 165.537 102.936 165.537 102.808V89.56C165.537 88.024 164.982 86.7013 163.873 85.592C162.806 84.44 161.483 83.864 159.905 83.864H155.681L155.617 102.68C155.617 102.893 155.531 103 155.361 103H148.129ZM155.681 76.184H161.185C162.507 76.184 163.681 75.6933 164.705 74.712C165.729 73.7307 166.241 72.536 166.241 71.128C166.241 69.7627 165.729 68.5893 164.705 67.608C163.723 66.6267 162.55 66.136 161.185 66.136H155.681V76.184ZM179.068 103C178.854 103 178.748 102.893 178.748 102.68L178.876 58.712C178.876 58.5413 178.961 58.456 179.132 58.456L191.1 58.392C193.446 58.3493 195.58 58.904 197.5 60.056C199.462 61.208 201.02 62.7653 202.172 64.728C203.324 66.648 203.9 68.7813 203.9 71.128V89.496C203.9 91.9707 203.302 94.232 202.108 96.28C200.913 98.2853 199.313 99.8853 197.308 101.08C195.302 102.275 193.041 102.893 190.524 102.936L179.068 103ZM186.556 95.128H190.524C192.102 95.128 193.425 94.5733 194.492 93.464C195.601 92.3547 196.156 91.032 196.156 89.496V71.064C196.156 69.6987 195.644 68.5253 194.62 67.544C193.638 66.52 192.465 66.0293 191.1 66.072L186.62 66.136L186.556 95.128Z" fill="white"/>
</svg>
