<svg width="26" height="45" viewBox="0 0 26 45" fill="none" xmlns="http://www.w3.org/2000/svg">
<path d="M0.816 45C0.645334 45 0.56 44.8933 0.56 44.68L0.688 0.711998C0.688 0.541331 0.773334 0.455997 0.944 0.455997H13.232C15.664 0.455997 17.84 1.05333 19.76 2.248C21.68 3.4 23.1947 4.936 24.304 6.856C25.4133 8.776 25.968 10.8667 25.968 13.128C25.968 14.9627 25.5413 16.6693 24.688 18.248C23.8773 19.8267 22.896 21.1067 21.744 22.088C22.9813 23.3253 23.9413 24.7547 24.624 26.376C25.3067 27.9973 25.648 29.704 25.648 31.496C25.648 33.9707 25.0507 36.232 23.856 38.28C22.6613 40.328 21.04 41.9707 18.992 43.208C16.9867 44.4027 14.7467 45 12.272 45H0.816ZM8.368 18.12H13.232C14.7253 18.12 15.92 17.608 16.816 16.584C17.7547 15.5173 18.224 14.3653 18.224 13.128C18.224 11.7627 17.7333 10.5893 16.752 9.608C15.7707 8.584 14.5973 8.072 13.232 8.072H8.368V18.12ZM8.304 37.192H12.272C13.808 37.192 15.1307 36.6373 16.24 35.528C17.3493 34.376 17.904 33.032 17.904 31.496C17.904 29.96 17.3493 28.6373 16.24 27.528C15.1307 26.4187 13.808 25.864 12.272 25.864H8.368L8.304 37.192Z" fill="white"/>
</svg>

